<?xml version="1.0" encoding="UTF-8"?>
<svg xmlns="http://www.w3.org/2000/svg" xmlns:xlink="http://www.w3.org/1999/xlink" width="600pt" height="600pt" viewBox="0 0 600 600" version="1.1">
<g id="surface86">
<rect x="0" y="0" width="600" height="600" style="fill:rgb(100%,100%,100%);fill-opacity:1;stroke:none;"/>
<path style="fill:none;stroke-width:1;stroke-linecap:butt;stroke-linejoin:miter;stroke:rgb(26.666667%,26.666667%,26.666667%);stroke-opacity:1;stroke-miterlimit:10;" d="M 357.277344 247.175781 L 397.652344 265.222656 "/>
<path style="fill:none;stroke-width:1;stroke-linecap:butt;stroke-linejoin:miter;stroke:rgb(26.666667%,26.666667%,26.666667%);stroke-opacity:1;stroke-miterlimit:10;" d="M 357.277344 247.175781 L 318.40625 251.617188 "/>
<path style="fill:none;stroke-width:1;stroke-linecap:butt;stroke-linejoin:miter;stroke:rgb(26.666667%,26.666667%,26.666667%);stroke-opacity:1;stroke-miterlimit:10;" d="M 357.277344 247.175781 L 361.074219 325.890625 "/>
<path style="fill:none;stroke-width:1;stroke-linecap:butt;stroke-linejoin:miter;stroke:rgb(26.666667%,26.666667%,26.666667%);stroke-opacity:1;stroke-miterlimit:10;" d="M 149.332031 169.332031 L 206.597656 157.332031 "/>
<path style="fill:none;stroke-width:1;stroke-linecap:butt;stroke-linejoin:miter;stroke:rgb(26.666667%,26.666667%,26.666667%);stroke-opacity:1;stroke-miterlimit:10;" d="M 149.332031 169.332031 L 167.984375 248.644531 "/>
<path style="fill:none;stroke-width:1;stroke-linecap:butt;stroke-linejoin:miter;stroke:rgb(26.666667%,26.666667%,26.666667%);stroke-opacity:1;stroke-miterlimit:10;" d="M 149.332031 169.332031 L 127.210938 110.726562 "/>
<path style="fill:none;stroke-width:1;stroke-linecap:butt;stroke-linejoin:miter;stroke:rgb(26.666667%,26.666667%,26.666667%);stroke-opacity:1;stroke-miterlimit:10;" d="M 465.863281 574.25 L 415.375 580 "/>
<path style="fill:none;stroke-width:1;stroke-linecap:butt;stroke-linejoin:miter;stroke:rgb(26.666667%,26.666667%,26.666667%);stroke-opacity:1;stroke-miterlimit:10;" d="M 48.15625 157.996094 L 38.3125 205.066406 "/>
<path style="fill:none;stroke-width:1;stroke-linecap:butt;stroke-linejoin:miter;stroke:rgb(26.666667%,26.666667%,26.666667%);stroke-opacity:1;stroke-miterlimit:10;" d="M 397.652344 265.222656 L 318.40625 251.617188 "/>
<path style="fill:none;stroke-width:1;stroke-linecap:butt;stroke-linejoin:miter;stroke:rgb(26.666667%,26.666667%,26.666667%);stroke-opacity:1;stroke-miterlimit:10;" d="M 397.652344 265.222656 L 454.835938 228.617188 "/>
<path style="fill:none;stroke-width:1;stroke-linecap:butt;stroke-linejoin:miter;stroke:rgb(26.666667%,26.666667%,26.666667%);stroke-opacity:1;stroke-miterlimit:10;" d="M 397.652344 265.222656 L 447.78125 194.8125 "/>
<path style="fill:none;stroke-width:1;stroke-linecap:butt;stroke-linejoin:miter;stroke:rgb(26.666667%,26.666667%,26.666667%);stroke-opacity:1;stroke-miterlimit:10;" d="M 397.652344 265.222656 L 399.582031 365.652344 "/>
<path style="fill:none;stroke-width:1;stroke-linecap:butt;stroke-linejoin:miter;stroke:rgb(26.666667%,26.666667%,26.666667%);stroke-opacity:1;stroke-miterlimit:10;" d="M 397.652344 265.222656 L 361.074219 325.890625 "/>
<path style="fill:none;stroke-width:1;stroke-linecap:butt;stroke-linejoin:miter;stroke:rgb(26.666667%,26.666667%,26.666667%);stroke-opacity:1;stroke-miterlimit:10;" d="M 280.179688 436.136719 L 300.625 504.953125 "/>
<path style="fill:none;stroke-width:1;stroke-linecap:butt;stroke-linejoin:miter;stroke:rgb(26.666667%,26.666667%,26.666667%);stroke-opacity:1;stroke-miterlimit:10;" d="M 280.179688 436.136719 L 354.46875 393.519531 "/>
<path style="fill:none;stroke-width:1;stroke-linecap:butt;stroke-linejoin:miter;stroke:rgb(26.666667%,26.666667%,26.666667%);stroke-opacity:1;stroke-miterlimit:10;" d="M 280.179688 436.136719 L 227.886719 473.214844 "/>
<path style="fill:none;stroke-width:1;stroke-linecap:butt;stroke-linejoin:miter;stroke:rgb(26.666667%,26.666667%,26.666667%);stroke-opacity:1;stroke-miterlimit:10;" d="M 280.179688 436.136719 L 291.53125 476.3125 "/>
<path style="fill:none;stroke-width:1;stroke-linecap:butt;stroke-linejoin:miter;stroke:rgb(26.666667%,26.666667%,26.666667%);stroke-opacity:1;stroke-miterlimit:10;" d="M 300.625 504.953125 L 227.886719 473.214844 "/>
<path style="fill:none;stroke-width:1;stroke-linecap:butt;stroke-linejoin:miter;stroke:rgb(26.666667%,26.666667%,26.666667%);stroke-opacity:1;stroke-miterlimit:10;" d="M 300.625 504.953125 L 291.53125 476.3125 "/>
<path style="fill:none;stroke-width:1;stroke-linecap:butt;stroke-linejoin:miter;stroke:rgb(26.666667%,26.666667%,26.666667%);stroke-opacity:1;stroke-miterlimit:10;" d="M 300.625 504.953125 L 375.675781 465.039062 "/>
<path style="fill:none;stroke-width:1;stroke-linecap:butt;stroke-linejoin:miter;stroke:rgb(26.666667%,26.666667%,26.666667%);stroke-opacity:1;stroke-miterlimit:10;" d="M 354.46875 393.519531 L 438.859375 364.484375 "/>
<path style="fill:none;stroke-width:1;stroke-linecap:butt;stroke-linejoin:miter;stroke:rgb(26.666667%,26.666667%,26.666667%);stroke-opacity:1;stroke-miterlimit:10;" d="M 206.597656 157.332031 L 238.535156 216.847656 "/>
<path style="fill:none;stroke-width:1;stroke-linecap:butt;stroke-linejoin:miter;stroke:rgb(26.666667%,26.666667%,26.666667%);stroke-opacity:1;stroke-miterlimit:10;" d="M 206.597656 157.332031 L 194.636719 204.539062 "/>
<path style="fill:none;stroke-width:1;stroke-linecap:butt;stroke-linejoin:miter;stroke:rgb(26.666667%,26.666667%,26.666667%);stroke-opacity:1;stroke-miterlimit:10;" d="M 359.011719 38.921875 L 403.167969 43.480469 "/>
<path style="fill:none;stroke-width:1;stroke-linecap:butt;stroke-linejoin:miter;stroke:rgb(26.666667%,26.666667%,26.666667%);stroke-opacity:1;stroke-miterlimit:10;" d="M 359.011719 38.921875 L 316.085938 29.132812 "/>
<path style="fill:none;stroke-width:1;stroke-linecap:butt;stroke-linejoin:miter;stroke:rgb(26.666667%,26.666667%,26.666667%);stroke-opacity:1;stroke-miterlimit:10;" d="M 318.40625 251.617188 L 238.535156 216.847656 "/>
<path style="fill:none;stroke-width:1;stroke-linecap:butt;stroke-linejoin:miter;stroke:rgb(26.666667%,26.666667%,26.666667%);stroke-opacity:1;stroke-miterlimit:10;" d="M 318.40625 251.617188 L 361.074219 325.890625 "/>
<path style="fill:none;stroke-width:1;stroke-linecap:butt;stroke-linejoin:miter;stroke:rgb(26.666667%,26.666667%,26.666667%);stroke-opacity:1;stroke-miterlimit:10;" d="M 380.839844 525.644531 L 333.816406 452.074219 "/>
<path style="fill:none;stroke-width:1;stroke-linecap:butt;stroke-linejoin:miter;stroke:rgb(26.666667%,26.666667%,26.666667%);stroke-opacity:1;stroke-miterlimit:10;" d="M 380.839844 525.644531 L 415.375 580 "/>
<path style="fill:none;stroke-width:1;stroke-linecap:butt;stroke-linejoin:miter;stroke:rgb(26.666667%,26.666667%,26.666667%);stroke-opacity:1;stroke-miterlimit:10;" d="M 380.839844 525.644531 L 375.675781 465.039062 "/>
<path style="fill:none;stroke-width:1;stroke-linecap:butt;stroke-linejoin:miter;stroke:rgb(26.666667%,26.666667%,26.666667%);stroke-opacity:1;stroke-miterlimit:10;" d="M 227.886719 473.214844 L 291.53125 476.3125 "/>
<path style="fill:none;stroke-width:1;stroke-linecap:butt;stroke-linejoin:miter;stroke:rgb(26.666667%,26.666667%,26.666667%);stroke-opacity:1;stroke-miterlimit:10;" d="M 227.886719 473.214844 L 188.40625 509.070312 "/>
<path style="fill:none;stroke-width:1;stroke-linecap:butt;stroke-linejoin:miter;stroke:rgb(26.666667%,26.666667%,26.666667%);stroke-opacity:1;stroke-miterlimit:10;" d="M 227.886719 473.214844 L 152.46875 438.242188 "/>
<path style="fill:none;stroke-width:1;stroke-linecap:butt;stroke-linejoin:miter;stroke:rgb(26.666667%,26.666667%,26.666667%);stroke-opacity:1;stroke-miterlimit:10;" d="M 454.835938 228.617188 L 504.082031 235.695312 "/>
<path style="fill:none;stroke-width:1;stroke-linecap:butt;stroke-linejoin:miter;stroke:rgb(26.666667%,26.666667%,26.666667%);stroke-opacity:1;stroke-miterlimit:10;" d="M 454.835938 228.617188 L 447.78125 194.8125 "/>
<path style="fill:none;stroke-width:1;stroke-linecap:butt;stroke-linejoin:miter;stroke:rgb(26.666667%,26.666667%,26.666667%);stroke-opacity:1;stroke-miterlimit:10;" d="M 147.855469 340.355469 L 167.984375 248.644531 "/>
<path style="fill:none;stroke-width:1;stroke-linecap:butt;stroke-linejoin:miter;stroke:rgb(26.666667%,26.666667%,26.666667%);stroke-opacity:1;stroke-miterlimit:10;" d="M 147.855469 340.355469 L 152.46875 438.242188 "/>
<path style="fill:none;stroke-width:1;stroke-linecap:butt;stroke-linejoin:miter;stroke:rgb(26.666667%,26.666667%,26.666667%);stroke-opacity:1;stroke-miterlimit:10;" d="M 20 347.425781 L 27.144531 301.15625 "/>
<path style="fill:none;stroke-width:1;stroke-linecap:butt;stroke-linejoin:miter;stroke:rgb(26.666667%,26.666667%,26.666667%);stroke-opacity:1;stroke-miterlimit:10;" d="M 291.53125 476.3125 L 375.675781 465.039062 "/>
<path style="fill:none;stroke-width:1;stroke-linecap:butt;stroke-linejoin:miter;stroke:rgb(26.666667%,26.666667%,26.666667%);stroke-opacity:1;stroke-miterlimit:10;" d="M 333.816406 452.074219 L 256.78125 530.523438 "/>
<path style="fill:none;stroke-width:1;stroke-linecap:butt;stroke-linejoin:miter;stroke:rgb(26.666667%,26.666667%,26.666667%);stroke-opacity:1;stroke-miterlimit:10;" d="M 333.816406 452.074219 L 361.074219 325.890625 "/>
<path style="fill:none;stroke-width:1;stroke-linecap:butt;stroke-linejoin:miter;stroke:rgb(26.666667%,26.666667%,26.666667%);stroke-opacity:1;stroke-miterlimit:10;" d="M 188.40625 509.070312 L 256.78125 530.523438 "/>
<path style="fill:none;stroke-width:1;stroke-linecap:butt;stroke-linejoin:miter;stroke:rgb(26.666667%,26.666667%,26.666667%);stroke-opacity:1;stroke-miterlimit:10;" d="M 188.40625 509.070312 L 152.46875 438.242188 "/>
<path style="fill:none;stroke-width:1;stroke-linecap:butt;stroke-linejoin:miter;stroke:rgb(26.666667%,26.666667%,26.666667%);stroke-opacity:1;stroke-miterlimit:10;" d="M 504.082031 235.695312 L 508.464844 308.234375 "/>
<path style="fill:none;stroke-width:1;stroke-linecap:butt;stroke-linejoin:miter;stroke:rgb(26.666667%,26.666667%,26.666667%);stroke-opacity:1;stroke-miterlimit:10;" d="M 504.082031 235.695312 L 447.78125 194.8125 "/>
<path style="fill:none;stroke-width:1;stroke-linecap:butt;stroke-linejoin:miter;stroke:rgb(26.666667%,26.666667%,26.666667%);stroke-opacity:1;stroke-miterlimit:10;" d="M 504.082031 235.695312 L 552.375 263.535156 "/>
<path style="fill:none;stroke-width:1;stroke-linecap:butt;stroke-linejoin:miter;stroke:rgb(26.666667%,26.666667%,26.666667%);stroke-opacity:1;stroke-miterlimit:10;" d="M 448.617188 439.664062 L 438.859375 364.484375 "/>
<path style="fill:none;stroke-width:1;stroke-linecap:butt;stroke-linejoin:miter;stroke:rgb(26.666667%,26.666667%,26.666667%);stroke-opacity:1;stroke-miterlimit:10;" d="M 448.617188 439.664062 L 375.675781 465.039062 "/>
<path style="fill:none;stroke-width:1;stroke-linecap:butt;stroke-linejoin:miter;stroke:rgb(26.666667%,26.666667%,26.666667%);stroke-opacity:1;stroke-miterlimit:10;" d="M 508.464844 308.234375 L 438.859375 364.484375 "/>
<path style="fill:none;stroke-width:1;stroke-linecap:butt;stroke-linejoin:miter;stroke:rgb(26.666667%,26.666667%,26.666667%);stroke-opacity:1;stroke-miterlimit:10;" d="M 508.464844 308.234375 L 552.375 263.535156 "/>
<path style="fill:none;stroke-width:1;stroke-linecap:butt;stroke-linejoin:miter;stroke:rgb(26.666667%,26.666667%,26.666667%);stroke-opacity:1;stroke-miterlimit:10;" d="M 438.859375 364.484375 L 361.074219 325.890625 "/>
<path style="fill:none;stroke-width:1;stroke-linecap:butt;stroke-linejoin:miter;stroke:rgb(26.666667%,26.666667%,26.666667%);stroke-opacity:1;stroke-miterlimit:10;" d="M 167.984375 248.644531 L 238.535156 216.847656 "/>
<path style="fill:none;stroke-width:1;stroke-linecap:butt;stroke-linejoin:miter;stroke:rgb(26.666667%,26.666667%,26.666667%);stroke-opacity:1;stroke-miterlimit:10;" d="M 167.984375 248.644531 L 194.636719 204.539062 "/>
<path style="fill:none;stroke-width:1;stroke-linecap:butt;stroke-linejoin:miter;stroke:rgb(26.666667%,26.666667%,26.666667%);stroke-opacity:1;stroke-miterlimit:10;" d="M 238.535156 216.847656 L 194.636719 204.539062 "/>
<path style="fill:none;stroke-width:1;stroke-linecap:butt;stroke-linejoin:miter;stroke:rgb(26.666667%,26.666667%,26.666667%);stroke-opacity:1;stroke-miterlimit:10;" d="M 98.574219 474.976562 L 92.972656 427.171875 "/>
<path style="fill:none;stroke-width:1;stroke-linecap:butt;stroke-linejoin:miter;stroke:rgb(26.666667%,26.666667%,26.666667%);stroke-opacity:1;stroke-miterlimit:10;" d="M 98.574219 474.976562 L 83.398438 527.28125 "/>
<path style="fill:none;stroke-width:1;stroke-linecap:butt;stroke-linejoin:miter;stroke:rgb(26.666667%,26.666667%,26.666667%);stroke-opacity:1;stroke-miterlimit:10;" d="M 98.574219 474.976562 L 152.46875 438.242188 "/>
<path style="fill:none;stroke-width:1;stroke-linecap:butt;stroke-linejoin:miter;stroke:rgb(26.666667%,26.666667%,26.666667%);stroke-opacity:1;stroke-miterlimit:10;" d="M 375.675781 465.039062 L 399.582031 365.652344 "/>
<path style="fill:none;stroke-width:1;stroke-linecap:butt;stroke-linejoin:miter;stroke:rgb(26.666667%,26.666667%,26.666667%);stroke-opacity:1;stroke-miterlimit:10;" d="M 92.972656 427.171875 L 152.46875 438.242188 "/>
<path style="fill:none;stroke-width:1;stroke-linecap:butt;stroke-linejoin:miter;stroke:rgb(26.666667%,26.666667%,26.666667%);stroke-opacity:1;stroke-miterlimit:10;" d="M 552.375 263.535156 L 580 215.988281 "/>
<path style="fill-rule:nonzero;fill:rgb(100%,0%,0%);fill-opacity:1;stroke-width:1;stroke-linecap:butt;stroke-linejoin:miter;stroke:rgb(0%,0%,0%);stroke-opacity:1;stroke-miterlimit:10;" d="M 367.277344 247.175781 C 367.277344 252.699219 362.800781 257.175781 357.277344 257.175781 C 351.757812 257.175781 347.277344 252.699219 347.277344 247.175781 C 347.277344 241.652344 351.757812 237.175781 357.277344 237.175781 C 362.800781 237.175781 367.277344 241.652344 367.277344 247.175781 "/>
<path style="fill-rule:nonzero;fill:rgb(100%,0%,0%);fill-opacity:1;stroke-width:1;stroke-linecap:butt;stroke-linejoin:miter;stroke:rgb(0%,0%,0%);stroke-opacity:1;stroke-miterlimit:10;" d="M 159.332031 169.332031 C 159.332031 174.855469 154.855469 179.332031 149.332031 179.332031 C 143.808594 179.332031 139.332031 174.855469 139.332031 169.332031 C 139.332031 163.808594 143.808594 159.332031 149.332031 159.332031 C 154.855469 159.332031 159.332031 163.808594 159.332031 169.332031 "/>
<path style="fill-rule:nonzero;fill:rgb(100%,0%,0%);fill-opacity:1;stroke-width:1;stroke-linecap:butt;stroke-linejoin:miter;stroke:rgb(0%,0%,0%);stroke-opacity:1;stroke-miterlimit:10;" d="M 475.863281 574.25 C 475.863281 579.773438 471.386719 584.25 465.863281 584.25 C 460.339844 584.25 455.863281 579.773438 455.863281 574.25 C 455.863281 568.726562 460.339844 564.25 465.863281 564.25 C 471.386719 564.25 475.863281 568.726562 475.863281 574.25 "/>
<path style="fill-rule:nonzero;fill:rgb(100%,0%,0%);fill-opacity:1;stroke-width:1;stroke-linecap:butt;stroke-linejoin:miter;stroke:rgb(0%,0%,0%);stroke-opacity:1;stroke-miterlimit:10;" d="M 58.15625 157.996094 C 58.15625 163.519531 53.679688 167.996094 48.15625 167.996094 C 42.632812 167.996094 38.15625 163.519531 38.15625 157.996094 C 38.15625 152.472656 42.632812 147.996094 48.15625 147.996094 C 53.679688 147.996094 58.15625 152.472656 58.15625 157.996094 "/>
<path style="fill-rule:nonzero;fill:rgb(100%,0%,0%);fill-opacity:1;stroke-width:1;stroke-linecap:butt;stroke-linejoin:miter;stroke:rgb(0%,0%,0%);stroke-opacity:1;stroke-miterlimit:10;" d="M 188.785156 29.808594 C 188.785156 35.332031 184.308594 39.808594 178.785156 39.808594 C 173.261719 39.808594 168.785156 35.332031 168.785156 29.808594 C 168.785156 24.285156 173.261719 19.808594 178.785156 19.808594 C 184.308594 19.808594 188.785156 24.285156 188.785156 29.808594 "/>
<path style="fill-rule:nonzero;fill:rgb(100%,0%,0%);fill-opacity:1;stroke-width:1;stroke-linecap:butt;stroke-linejoin:miter;stroke:rgb(0%,0%,0%);stroke-opacity:1;stroke-miterlimit:10;" d="M 407.652344 265.222656 C 407.652344 270.746094 403.175781 275.222656 397.652344 275.222656 C 392.128906 275.222656 387.652344 270.746094 387.652344 265.222656 C 387.652344 259.699219 392.128906 255.222656 397.652344 255.222656 C 403.175781 255.222656 407.652344 259.699219 407.652344 265.222656 "/>
<path style="fill-rule:nonzero;fill:rgb(100%,0%,0%);fill-opacity:1;stroke-width:1;stroke-linecap:butt;stroke-linejoin:miter;stroke:rgb(0%,0%,0%);stroke-opacity:1;stroke-miterlimit:10;" d="M 290.179688 436.136719 C 290.179688 441.660156 285.703125 446.136719 280.179688 446.136719 C 274.65625 446.136719 270.179688 441.660156 270.179688 436.136719 C 270.179688 430.613281 274.65625 426.136719 280.179688 426.136719 C 285.703125 426.136719 290.179688 430.613281 290.179688 436.136719 "/>
<path style="fill-rule:nonzero;fill:rgb(100%,0%,0%);fill-opacity:1;stroke-width:1;stroke-linecap:butt;stroke-linejoin:miter;stroke:rgb(0%,0%,0%);stroke-opacity:1;stroke-miterlimit:10;" d="M 310.625 504.953125 C 310.625 510.472656 306.144531 514.953125 300.625 514.953125 C 295.101562 514.953125 290.625 510.472656 290.625 504.953125 C 290.625 499.429688 295.101562 494.953125 300.625 494.953125 C 306.144531 494.953125 310.625 499.429688 310.625 504.953125 "/>
<path style="fill-rule:nonzero;fill:rgb(100%,0%,0%);fill-opacity:1;stroke-width:1;stroke-linecap:butt;stroke-linejoin:miter;stroke:rgb(0%,0%,0%);stroke-opacity:1;stroke-miterlimit:10;" d="M 364.46875 393.519531 C 364.46875 399.042969 359.992188 403.519531 354.46875 403.519531 C 348.945312 403.519531 344.46875 399.042969 344.46875 393.519531 C 344.46875 387.996094 348.945312 383.519531 354.46875 383.519531 C 359.992188 383.519531 364.46875 387.996094 364.46875 393.519531 "/>
<path style="fill-rule:nonzero;fill:rgb(100%,0%,0%);fill-opacity:1;stroke-width:1;stroke-linecap:butt;stroke-linejoin:miter;stroke:rgb(0%,0%,0%);stroke-opacity:1;stroke-miterlimit:10;" d="M 216.597656 157.332031 C 216.597656 162.855469 212.121094 167.332031 206.597656 167.332031 C 201.078125 167.332031 196.597656 162.855469 196.597656 157.332031 C 196.597656 151.8125 201.078125 147.332031 206.597656 147.332031 C 212.121094 147.332031 216.597656 151.8125 216.597656 157.332031 "/>
<path style="fill-rule:nonzero;fill:rgb(100%,0%,0%);fill-opacity:1;stroke-width:1;stroke-linecap:butt;stroke-linejoin:miter;stroke:rgb(0%,0%,0%);stroke-opacity:1;stroke-miterlimit:10;" d="M 369.011719 38.921875 C 369.011719 44.445312 364.535156 48.921875 359.011719 48.921875 C 353.488281 48.921875 349.011719 44.445312 349.011719 38.921875 C 349.011719 33.398438 353.488281 28.921875 359.011719 28.921875 C 364.535156 28.921875 369.011719 33.398438 369.011719 38.921875 "/>
<path style="fill-rule:nonzero;fill:rgb(100%,0%,0%);fill-opacity:1;stroke-width:1;stroke-linecap:butt;stroke-linejoin:miter;stroke:rgb(0%,0%,0%);stroke-opacity:1;stroke-miterlimit:10;" d="M 328.40625 251.617188 C 328.40625 257.140625 323.929688 261.617188 318.40625 261.617188 C 312.882812 261.617188 308.40625 257.140625 308.40625 251.617188 C 308.40625 246.09375 312.882812 241.617188 318.40625 241.617188 C 323.929688 241.617188 328.40625 246.09375 328.40625 251.617188 "/>
<path style="fill-rule:nonzero;fill:rgb(100%,0%,0%);fill-opacity:1;stroke-width:1;stroke-linecap:butt;stroke-linejoin:miter;stroke:rgb(0%,0%,0%);stroke-opacity:1;stroke-miterlimit:10;" d="M 390.839844 525.644531 C 390.839844 531.167969 386.363281 535.644531 380.839844 535.644531 C 375.316406 535.644531 370.839844 531.167969 370.839844 525.644531 C 370.839844 520.125 375.316406 515.644531 380.839844 515.644531 C 386.363281 515.644531 390.839844 520.125 390.839844 525.644531 "/>
<path style="fill-rule:nonzero;fill:rgb(100%,0%,0%);fill-opacity:1;stroke-width:1;stroke-linecap:butt;stroke-linejoin:miter;stroke:rgb(0%,0%,0%);stroke-opacity:1;stroke-miterlimit:10;" d="M 237.886719 473.214844 C 237.886719 478.738281 233.410156 483.214844 227.886719 483.214844 C 222.367188 483.214844 217.886719 478.738281 217.886719 473.214844 C 217.886719 467.691406 222.367188 463.214844 227.886719 463.214844 C 233.410156 463.214844 237.886719 467.691406 237.886719 473.214844 "/>
<path style="fill-rule:nonzero;fill:rgb(100%,0%,0%);fill-opacity:1;stroke-width:1;stroke-linecap:butt;stroke-linejoin:miter;stroke:rgb(0%,0%,0%);stroke-opacity:1;stroke-miterlimit:10;" d="M 464.835938 228.617188 C 464.835938 234.140625 460.355469 238.617188 454.835938 238.617188 C 449.3125 238.617188 444.835938 234.140625 444.835938 228.617188 C 444.835938 223.09375 449.3125 218.617188 454.835938 218.617188 C 460.355469 218.617188 464.835938 223.09375 464.835938 228.617188 "/>
<path style="fill-rule:nonzero;fill:rgb(100%,0%,0%);fill-opacity:1;stroke-width:1;stroke-linecap:butt;stroke-linejoin:miter;stroke:rgb(0%,0%,0%);stroke-opacity:1;stroke-miterlimit:10;" d="M 157.855469 340.355469 C 157.855469 345.878906 153.378906 350.355469 147.855469 350.355469 C 142.335938 350.355469 137.855469 345.878906 137.855469 340.355469 C 137.855469 334.832031 142.335938 330.355469 147.855469 330.355469 C 153.378906 330.355469 157.855469 334.832031 157.855469 340.355469 "/>
<path style="fill-rule:nonzero;fill:rgb(100%,0%,0%);fill-opacity:1;stroke-width:1;stroke-linecap:butt;stroke-linejoin:miter;stroke:rgb(0%,0%,0%);stroke-opacity:1;stroke-miterlimit:10;" d="M 30 347.425781 C 30 352.949219 25.523438 357.425781 20 357.425781 C 14.476562 357.425781 10 352.949219 10 347.425781 C 10 341.902344 14.476562 337.425781 20 337.425781 C 25.523438 337.425781 30 341.902344 30 347.425781 "/>
<path style="fill-rule:nonzero;fill:rgb(100%,0%,0%);fill-opacity:1;stroke-width:1;stroke-linecap:butt;stroke-linejoin:miter;stroke:rgb(0%,0%,0%);stroke-opacity:1;stroke-miterlimit:10;" d="M 301.53125 476.3125 C 301.53125 481.835938 297.054688 486.3125 291.53125 486.3125 C 286.007812 486.3125 281.53125 481.835938 281.53125 476.3125 C 281.53125 470.789062 286.007812 466.3125 291.53125 466.3125 C 297.054688 466.3125 301.53125 470.789062 301.53125 476.3125 "/>
<path style="fill-rule:nonzero;fill:rgb(100%,0%,0%);fill-opacity:1;stroke-width:1;stroke-linecap:butt;stroke-linejoin:miter;stroke:rgb(0%,0%,0%);stroke-opacity:1;stroke-miterlimit:10;" d="M 343.816406 452.074219 C 343.816406 457.597656 339.339844 462.074219 333.816406 462.074219 C 328.292969 462.074219 323.816406 457.597656 323.816406 452.074219 C 323.816406 446.550781 328.292969 442.074219 333.816406 442.074219 C 339.339844 442.074219 343.816406 446.550781 343.816406 452.074219 "/>
<path style="fill-rule:nonzero;fill:rgb(100%,0%,0%);fill-opacity:1;stroke-width:1;stroke-linecap:butt;stroke-linejoin:miter;stroke:rgb(0%,0%,0%);stroke-opacity:1;stroke-miterlimit:10;" d="M 198.40625 509.070312 C 198.40625 514.589844 193.929688 519.070312 188.40625 519.070312 C 182.886719 519.070312 178.40625 514.589844 178.40625 509.070312 C 178.40625 503.546875 182.886719 499.070312 188.40625 499.070312 C 193.929688 499.070312 198.40625 503.546875 198.40625 509.070312 "/>
<path style="fill-rule:nonzero;fill:rgb(100%,0%,0%);fill-opacity:1;stroke-width:1;stroke-linecap:butt;stroke-linejoin:miter;stroke:rgb(0%,0%,0%);stroke-opacity:1;stroke-miterlimit:10;" d="M 514.082031 235.695312 C 514.082031 241.21875 509.605469 245.695312 504.082031 245.695312 C 498.5625 245.695312 494.082031 241.21875 494.082031 235.695312 C 494.082031 230.171875 498.5625 225.695312 504.082031 225.695312 C 509.605469 225.695312 514.082031 230.171875 514.082031 235.695312 "/>
<path style="fill-rule:nonzero;fill:rgb(100%,0%,0%);fill-opacity:1;stroke-width:1;stroke-linecap:butt;stroke-linejoin:miter;stroke:rgb(0%,0%,0%);stroke-opacity:1;stroke-miterlimit:10;" d="M 458.617188 439.664062 C 458.617188 445.1875 454.140625 449.664062 448.617188 449.664062 C 443.09375 449.664062 438.617188 445.1875 438.617188 439.664062 C 438.617188 434.140625 443.09375 429.664062 448.617188 429.664062 C 454.140625 429.664062 458.617188 434.140625 458.617188 439.664062 "/>
<path style="fill-rule:nonzero;fill:rgb(100%,0%,0%);fill-opacity:1;stroke-width:1;stroke-linecap:butt;stroke-linejoin:miter;stroke:rgb(0%,0%,0%);stroke-opacity:1;stroke-miterlimit:10;" d="M 518.464844 308.234375 C 518.464844 313.757812 513.988281 318.234375 508.464844 318.234375 C 502.941406 318.234375 498.464844 313.757812 498.464844 308.234375 C 498.464844 302.710938 502.941406 298.234375 508.464844 298.234375 C 513.988281 298.234375 518.464844 302.710938 518.464844 308.234375 "/>
<path style="fill-rule:nonzero;fill:rgb(100%,0%,0%);fill-opacity:1;stroke-width:1;stroke-linecap:butt;stroke-linejoin:miter;stroke:rgb(0%,0%,0%);stroke-opacity:1;stroke-miterlimit:10;" d="M 448.859375 364.484375 C 448.859375 370.007812 444.382812 374.484375 438.859375 374.484375 C 433.335938 374.484375 428.859375 370.007812 428.859375 364.484375 C 428.859375 358.960938 433.335938 354.484375 438.859375 354.484375 C 444.382812 354.484375 448.859375 358.960938 448.859375 364.484375 "/>
<path style="fill-rule:nonzero;fill:rgb(100%,0%,0%);fill-opacity:1;stroke-width:1;stroke-linecap:butt;stroke-linejoin:miter;stroke:rgb(0%,0%,0%);stroke-opacity:1;stroke-miterlimit:10;" d="M 490.335938 75.824219 C 490.335938 81.347656 485.859375 85.824219 480.335938 85.824219 C 474.8125 85.824219 470.335938 81.347656 470.335938 75.824219 C 470.335938 70.300781 474.8125 65.824219 480.335938 65.824219 C 485.859375 65.824219 490.335938 70.300781 490.335938 75.824219 "/>
<path style="fill-rule:nonzero;fill:rgb(100%,0%,0%);fill-opacity:1;stroke-width:1;stroke-linecap:butt;stroke-linejoin:miter;stroke:rgb(0%,0%,0%);stroke-opacity:1;stroke-miterlimit:10;" d="M 177.984375 248.644531 C 177.984375 254.167969 173.507812 258.644531 167.984375 258.644531 C 162.460938 258.644531 157.984375 254.167969 157.984375 248.644531 C 157.984375 243.121094 162.460938 238.644531 167.984375 238.644531 C 173.507812 238.644531 177.984375 243.121094 177.984375 248.644531 "/>
<path style="fill-rule:nonzero;fill:rgb(100%,0%,0%);fill-opacity:1;stroke-width:1;stroke-linecap:butt;stroke-linejoin:miter;stroke:rgb(0%,0%,0%);stroke-opacity:1;stroke-miterlimit:10;" d="M 137.210938 110.726562 C 137.210938 116.246094 132.734375 120.726562 127.210938 120.726562 C 121.691406 120.726562 117.210938 116.246094 117.210938 110.726562 C 117.210938 105.203125 121.691406 100.726562 127.210938 100.726562 C 132.734375 100.726562 137.210938 105.203125 137.210938 110.726562 "/>
<path style="fill-rule:nonzero;fill:rgb(100%,0%,0%);fill-opacity:1;stroke-width:1;stroke-linecap:butt;stroke-linejoin:miter;stroke:rgb(0%,0%,0%);stroke-opacity:1;stroke-miterlimit:10;" d="M 248.535156 216.847656 C 248.535156 222.371094 244.058594 226.847656 238.535156 226.847656 C 233.011719 226.847656 228.535156 222.371094 228.535156 216.847656 C 228.535156 211.328125 233.011719 206.847656 238.535156 206.847656 C 244.058594 206.847656 248.535156 211.328125 248.535156 216.847656 "/>
<path style="fill-rule:nonzero;fill:rgb(100%,0%,0%);fill-opacity:1;stroke-width:1;stroke-linecap:butt;stroke-linejoin:miter;stroke:rgb(0%,0%,0%);stroke-opacity:1;stroke-miterlimit:10;" d="M 425.375 580 C 425.375 585.523438 420.898438 590 415.375 590 C 409.851562 590 405.375 585.523438 405.375 580 C 405.375 574.476562 409.851562 570 415.375 570 C 420.898438 570 425.375 574.476562 425.375 580 "/>
<path style="fill-rule:nonzero;fill:rgb(100%,0%,0%);fill-opacity:1;stroke-width:1;stroke-linecap:butt;stroke-linejoin:miter;stroke:rgb(0%,0%,0%);stroke-opacity:1;stroke-miterlimit:10;" d="M 37.144531 301.15625 C 37.144531 306.679688 32.667969 311.15625 27.144531 311.15625 C 21.625 311.15625 17.144531 306.679688 17.144531 301.15625 C 17.144531 295.632812 21.625 291.15625 27.144531 291.15625 C 32.667969 291.15625 37.144531 295.632812 37.144531 301.15625 "/>
<path style="fill-rule:nonzero;fill:rgb(100%,0%,0%);fill-opacity:1;stroke-width:1;stroke-linecap:butt;stroke-linejoin:miter;stroke:rgb(0%,0%,0%);stroke-opacity:1;stroke-miterlimit:10;" d="M 413.167969 43.480469 C 413.167969 49.003906 408.691406 53.480469 403.167969 53.480469 C 397.644531 53.480469 393.167969 49.003906 393.167969 43.480469 C 393.167969 37.957031 397.644531 33.480469 403.167969 33.480469 C 408.691406 33.480469 413.167969 37.957031 413.167969 43.480469 "/>
<path style="fill-rule:nonzero;fill:rgb(100%,0%,0%);fill-opacity:1;stroke-width:1;stroke-linecap:butt;stroke-linejoin:miter;stroke:rgb(0%,0%,0%);stroke-opacity:1;stroke-miterlimit:10;" d="M 108.574219 474.976562 C 108.574219 480.5 104.097656 484.976562 98.574219 484.976562 C 93.050781 484.976562 88.574219 480.5 88.574219 474.976562 C 88.574219 469.457031 93.050781 464.976562 98.574219 464.976562 C 104.097656 464.976562 108.574219 469.457031 108.574219 474.976562 "/>
<path style="fill-rule:nonzero;fill:rgb(100%,0%,0%);fill-opacity:1;stroke-width:1;stroke-linecap:butt;stroke-linejoin:miter;stroke:rgb(0%,0%,0%);stroke-opacity:1;stroke-miterlimit:10;" d="M 266.78125 530.523438 C 266.78125 536.046875 262.304688 540.523438 256.78125 540.523438 C 251.257812 540.523438 246.78125 536.046875 246.78125 530.523438 C 246.78125 525 251.257812 520.523438 256.78125 520.523438 C 262.304688 520.523438 266.78125 525 266.78125 530.523438 "/>
<path style="fill-rule:nonzero;fill:rgb(100%,0%,0%);fill-opacity:1;stroke-width:1;stroke-linecap:butt;stroke-linejoin:miter;stroke:rgb(0%,0%,0%);stroke-opacity:1;stroke-miterlimit:10;" d="M 326.085938 29.132812 C 326.085938 34.65625 321.609375 39.132812 316.085938 39.132812 C 310.5625 39.132812 306.085938 34.65625 306.085938 29.132812 C 306.085938 23.609375 310.5625 19.132812 316.085938 19.132812 C 321.609375 19.132812 326.085938 23.609375 326.085938 29.132812 "/>
<path style="fill-rule:nonzero;fill:rgb(100%,0%,0%);fill-opacity:1;stroke-width:1;stroke-linecap:butt;stroke-linejoin:miter;stroke:rgb(0%,0%,0%);stroke-opacity:1;stroke-miterlimit:10;" d="M 385.675781 465.039062 C 385.675781 470.5625 381.199219 475.039062 375.675781 475.039062 C 370.152344 475.039062 365.675781 470.5625 365.675781 465.039062 C 365.675781 459.515625 370.152344 455.039062 375.675781 455.039062 C 381.199219 455.039062 385.675781 459.515625 385.675781 465.039062 "/>
<path style="fill-rule:nonzero;fill:rgb(100%,0%,0%);fill-opacity:1;stroke-width:1;stroke-linecap:butt;stroke-linejoin:miter;stroke:rgb(0%,0%,0%);stroke-opacity:1;stroke-miterlimit:10;" d="M 102.972656 427.171875 C 102.972656 432.695312 98.496094 437.171875 92.972656 437.171875 C 87.449219 437.171875 82.972656 432.695312 82.972656 427.171875 C 82.972656 421.652344 87.449219 417.171875 92.972656 417.171875 C 98.496094 417.171875 102.972656 421.652344 102.972656 427.171875 "/>
<path style="fill-rule:nonzero;fill:rgb(100%,0%,0%);fill-opacity:1;stroke-width:1;stroke-linecap:butt;stroke-linejoin:miter;stroke:rgb(0%,0%,0%);stroke-opacity:1;stroke-miterlimit:10;" d="M 204.636719 204.539062 C 204.636719 210.0625 200.160156 214.539062 194.636719 214.539062 C 189.113281 214.539062 184.636719 210.0625 184.636719 204.539062 C 184.636719 199.015625 189.113281 194.539062 194.636719 194.539062 C 200.160156 194.539062 204.636719 199.015625 204.636719 204.539062 "/>
<path style="fill-rule:nonzero;fill:rgb(100%,0%,0%);fill-opacity:1;stroke-width:1;stroke-linecap:butt;stroke-linejoin:miter;stroke:rgb(0%,0%,0%);stroke-opacity:1;stroke-miterlimit:10;" d="M 457.78125 194.8125 C 457.78125 200.335938 453.304688 204.8125 447.78125 204.8125 C 442.257812 204.8125 437.78125 200.335938 437.78125 194.8125 C 437.78125 189.289062 442.257812 184.8125 447.78125 184.8125 C 453.304688 184.8125 457.78125 189.289062 457.78125 194.8125 "/>
<path style="fill-rule:nonzero;fill:rgb(100%,0%,0%);fill-opacity:1;stroke-width:1;stroke-linecap:butt;stroke-linejoin:miter;stroke:rgb(0%,0%,0%);stroke-opacity:1;stroke-miterlimit:10;" d="M 562.375 263.535156 C 562.375 269.058594 557.894531 273.535156 552.375 273.535156 C 546.851562 273.535156 542.375 269.058594 542.375 263.535156 C 542.375 258.015625 546.851562 253.535156 552.375 253.535156 C 557.894531 253.535156 562.375 258.015625 562.375 263.535156 "/>
<path style="fill-rule:nonzero;fill:rgb(100%,0%,0%);fill-opacity:1;stroke-width:1;stroke-linecap:butt;stroke-linejoin:miter;stroke:rgb(0%,0%,0%);stroke-opacity:1;stroke-miterlimit:10;" d="M 259.542969 20 C 259.542969 25.523438 255.066406 30 249.542969 30 C 244.023438 30 239.542969 25.523438 239.542969 20 C 239.542969 14.476562 244.023438 10 249.542969 10 C 255.066406 10 259.542969 14.476562 259.542969 20 "/>
<path style="fill-rule:nonzero;fill:rgb(100%,0%,0%);fill-opacity:1;stroke-width:1;stroke-linecap:butt;stroke-linejoin:miter;stroke:rgb(0%,0%,0%);stroke-opacity:1;stroke-miterlimit:10;" d="M 409.582031 365.652344 C 409.582031 371.175781 405.105469 375.652344 399.582031 375.652344 C 394.058594 375.652344 389.582031 371.175781 389.582031 365.652344 C 389.582031 360.128906 394.058594 355.652344 399.582031 355.652344 C 405.105469 355.652344 409.582031 360.128906 409.582031 365.652344 "/>
<path style="fill-rule:nonzero;fill:rgb(100%,0%,0%);fill-opacity:1;stroke-width:1;stroke-linecap:butt;stroke-linejoin:miter;stroke:rgb(0%,0%,0%);stroke-opacity:1;stroke-miterlimit:10;" d="M 93.398438 527.28125 C 93.398438 532.804688 88.921875 537.28125 83.398438 537.28125 C 77.875 537.28125 73.398438 532.804688 73.398438 527.28125 C 73.398438 521.757812 77.875 517.28125 83.398438 517.28125 C 88.921875 517.28125 93.398438 521.757812 93.398438 527.28125 "/>
<path style="fill-rule:nonzero;fill:rgb(100%,0%,0%);fill-opacity:1;stroke-width:1;stroke-linecap:butt;stroke-linejoin:miter;stroke:rgb(0%,0%,0%);stroke-opacity:1;stroke-miterlimit:10;" d="M 371.074219 325.890625 C 371.074219 331.414062 366.597656 335.890625 361.074219 335.890625 C 355.554688 335.890625 351.074219 331.414062 351.074219 325.890625 C 351.074219 320.367188 355.554688 315.890625 361.074219 315.890625 C 366.597656 315.890625 371.074219 320.367188 371.074219 325.890625 "/>
<path style="fill-rule:nonzero;fill:rgb(100%,0%,0%);fill-opacity:1;stroke-width:1;stroke-linecap:butt;stroke-linejoin:miter;stroke:rgb(0%,0%,0%);stroke-opacity:1;stroke-miterlimit:10;" d="M 590 215.988281 C 590 221.511719 585.523438 225.988281 580 225.988281 C 574.476562 225.988281 570 221.511719 570 215.988281 C 570 210.464844 574.476562 205.988281 580 205.988281 C 585.523438 205.988281 590 210.464844 590 215.988281 "/>
<path style="fill-rule:nonzero;fill:rgb(100%,0%,0%);fill-opacity:1;stroke-width:1;stroke-linecap:butt;stroke-linejoin:miter;stroke:rgb(0%,0%,0%);stroke-opacity:1;stroke-miterlimit:10;" d="M 48.3125 205.066406 C 48.3125 210.589844 43.835938 215.066406 38.3125 215.066406 C 32.789062 215.066406 28.3125 210.589844 28.3125 205.066406 C 28.3125 199.542969 32.789062 195.066406 38.3125 195.066406 C 43.835938 195.066406 48.3125 199.542969 48.3125 205.066406 "/>
<path style="fill-rule:nonzero;fill:rgb(100%,0%,0%);fill-opacity:1;stroke-width:1;stroke-linecap:butt;stroke-linejoin:miter;stroke:rgb(0%,0%,0%);stroke-opacity:1;stroke-miterlimit:10;" d="M 162.46875 438.242188 C 162.46875 443.761719 157.992188 448.242188 152.46875 448.242188 C 146.945312 448.242188 142.46875 443.761719 142.46875 438.242188 C 142.46875 432.71875 146.945312 428.242188 152.46875 428.242188 C 157.992188 428.242188 162.46875 432.71875 162.46875 438.242188 "/>
<path style="fill-rule:nonzero;fill:rgb(100%,0%,0%);fill-opacity:1;stroke-width:1;stroke-linecap:butt;stroke-linejoin:miter;stroke:rgb(0%,0%,0%);stroke-opacity:1;stroke-miterlimit:10;" d="M 578.0625 429.042969 C 578.0625 434.566406 573.585938 439.042969 568.0625 439.042969 C 562.539062 439.042969 558.0625 434.566406 558.0625 429.042969 C 558.0625 423.519531 562.539062 419.042969 568.0625 419.042969 C 573.585938 419.042969 578.0625 423.519531 578.0625 429.042969 "/>
</g>
</svg>
