<?xml version="1.0" encoding="UTF-8"?>
<svg xmlns="http://www.w3.org/2000/svg" xmlns:xlink="http://www.w3.org/1999/xlink" width="600pt" height="600pt" viewBox="0 0 600 600" version="1.1">
<g id="surface22">
<rect x="0" y="0" width="600" height="600" style="fill:rgb(100%,100%,100%);fill-opacity:1;stroke:none;"/>
<path style="fill:none;stroke-width:1;stroke-linecap:butt;stroke-linejoin:miter;stroke:rgb(26.666667%,26.666667%,26.666667%);stroke-opacity:1;stroke-miterlimit:10;" d="M 287.355469 37.082031 L 341.953125 72.242188 "/>
<path style="fill:none;stroke-width:1;stroke-linecap:butt;stroke-linejoin:miter;stroke:rgb(26.666667%,26.666667%,26.666667%);stroke-opacity:1;stroke-miterlimit:10;" d="M 287.355469 37.082031 L 288.8125 99.394531 "/>
<path style="fill:none;stroke-width:1;stroke-linecap:butt;stroke-linejoin:miter;stroke:rgb(26.666667%,26.666667%,26.666667%);stroke-opacity:1;stroke-miterlimit:10;" d="M 312.914062 524.003906 L 308.191406 454.460938 "/>
<path style="fill:none;stroke-width:1;stroke-linecap:butt;stroke-linejoin:miter;stroke:rgb(26.666667%,26.666667%,26.666667%);stroke-opacity:1;stroke-miterlimit:10;" d="M 312.914062 524.003906 L 308.367188 580 "/>
<path style="fill:none;stroke-width:1;stroke-linecap:butt;stroke-linejoin:miter;stroke:rgb(26.666667%,26.666667%,26.666667%);stroke-opacity:1;stroke-miterlimit:10;" d="M 102.746094 417.640625 L 72.257812 457.660156 "/>
<path style="fill:none;stroke-width:1;stroke-linecap:butt;stroke-linejoin:miter;stroke:rgb(26.666667%,26.666667%,26.666667%);stroke-opacity:1;stroke-miterlimit:10;" d="M 341.953125 72.242188 L 381.710938 20 "/>
<path style="fill:none;stroke-width:1;stroke-linecap:butt;stroke-linejoin:miter;stroke:rgb(26.666667%,26.666667%,26.666667%);stroke-opacity:1;stroke-miterlimit:10;" d="M 341.953125 72.242188 L 413.238281 55.917969 "/>
<path style="fill:none;stroke-width:1;stroke-linecap:butt;stroke-linejoin:miter;stroke:rgb(26.666667%,26.666667%,26.666667%);stroke-opacity:1;stroke-miterlimit:10;" d="M 341.953125 72.242188 L 309.347656 155.707031 "/>
<path style="fill:none;stroke-width:1;stroke-linecap:butt;stroke-linejoin:miter;stroke:rgb(26.666667%,26.666667%,26.666667%);stroke-opacity:1;stroke-miterlimit:10;" d="M 341.953125 72.242188 L 288.8125 99.394531 "/>
<path style="fill:none;stroke-width:1;stroke-linecap:butt;stroke-linejoin:miter;stroke:rgb(26.666667%,26.666667%,26.666667%);stroke-opacity:1;stroke-miterlimit:10;" d="M 326.589844 282.066406 L 399.238281 313.289062 "/>
<path style="fill:none;stroke-width:1;stroke-linecap:butt;stroke-linejoin:miter;stroke:rgb(26.666667%,26.666667%,26.666667%);stroke-opacity:1;stroke-miterlimit:10;" d="M 326.589844 282.066406 L 273.742188 224.765625 "/>
<path style="fill:none;stroke-width:1;stroke-linecap:butt;stroke-linejoin:miter;stroke:rgb(26.666667%,26.666667%,26.666667%);stroke-opacity:1;stroke-miterlimit:10;" d="M 159.164062 62.269531 L 195.378906 118.929688 "/>
<path style="fill:none;stroke-width:1;stroke-linecap:butt;stroke-linejoin:miter;stroke:rgb(26.666667%,26.666667%,26.666667%);stroke-opacity:1;stroke-miterlimit:10;" d="M 181.804688 560.078125 L 141.777344 529.3125 "/>
<path style="fill:none;stroke-width:1;stroke-linecap:butt;stroke-linejoin:miter;stroke:rgb(26.666667%,26.666667%,26.666667%);stroke-opacity:1;stroke-miterlimit:10;" d="M 399.238281 313.289062 L 453.039062 283.160156 "/>
<path style="fill:none;stroke-width:1;stroke-linecap:butt;stroke-linejoin:miter;stroke:rgb(26.666667%,26.666667%,26.666667%);stroke-opacity:1;stroke-miterlimit:10;" d="M 399.238281 313.289062 L 451.066406 364.054688 "/>
<path style="fill:none;stroke-width:1;stroke-linecap:butt;stroke-linejoin:miter;stroke:rgb(26.666667%,26.666667%,26.666667%);stroke-opacity:1;stroke-miterlimit:10;" d="M 381.710938 20 L 413.238281 55.917969 "/>
<path style="fill:none;stroke-width:1;stroke-linecap:butt;stroke-linejoin:miter;stroke:rgb(26.666667%,26.666667%,26.666667%);stroke-opacity:1;stroke-miterlimit:10;" d="M 383.984375 420.707031 L 308.191406 454.460938 "/>
<path style="fill:none;stroke-width:1;stroke-linecap:butt;stroke-linejoin:miter;stroke:rgb(26.666667%,26.666667%,26.666667%);stroke-opacity:1;stroke-miterlimit:10;" d="M 383.984375 420.707031 L 451.066406 364.054688 "/>
<path style="fill:none;stroke-width:1;stroke-linecap:butt;stroke-linejoin:miter;stroke:rgb(26.666667%,26.666667%,26.666667%);stroke-opacity:1;stroke-miterlimit:10;" d="M 476.046875 526.28125 L 431.800781 552.496094 "/>
<path style="fill:none;stroke-width:1;stroke-linecap:butt;stroke-linejoin:miter;stroke:rgb(26.666667%,26.666667%,26.666667%);stroke-opacity:1;stroke-miterlimit:10;" d="M 380.050781 148.335938 L 440.730469 204.40625 "/>
<path style="fill:none;stroke-width:1;stroke-linecap:butt;stroke-linejoin:miter;stroke:rgb(26.666667%,26.666667%,26.666667%);stroke-opacity:1;stroke-miterlimit:10;" d="M 380.050781 148.335938 L 288.8125 99.394531 "/>
<path style="fill:none;stroke-width:1;stroke-linecap:butt;stroke-linejoin:miter;stroke:rgb(26.666667%,26.666667%,26.666667%);stroke-opacity:1;stroke-miterlimit:10;" d="M 453.039062 283.160156 L 440.730469 204.40625 "/>
<path style="fill:none;stroke-width:1;stroke-linecap:butt;stroke-linejoin:miter;stroke:rgb(26.666667%,26.666667%,26.666667%);stroke-opacity:1;stroke-miterlimit:10;" d="M 453.039062 283.160156 L 451.066406 364.054688 "/>
<path style="fill:none;stroke-width:1;stroke-linecap:butt;stroke-linejoin:miter;stroke:rgb(26.666667%,26.666667%,26.666667%);stroke-opacity:1;stroke-miterlimit:10;" d="M 208.097656 192.550781 L 195.378906 118.929688 "/>
<path style="fill:none;stroke-width:1;stroke-linecap:butt;stroke-linejoin:miter;stroke:rgb(26.666667%,26.666667%,26.666667%);stroke-opacity:1;stroke-miterlimit:10;" d="M 208.097656 192.550781 L 273.742188 224.765625 "/>
<path style="fill:none;stroke-width:1;stroke-linecap:butt;stroke-linejoin:miter;stroke:rgb(26.666667%,26.666667%,26.666667%);stroke-opacity:1;stroke-miterlimit:10;" d="M 122.40625 137.4375 L 195.378906 118.929688 "/>
<path style="fill:none;stroke-width:1;stroke-linecap:butt;stroke-linejoin:miter;stroke:rgb(26.666667%,26.666667%,26.666667%);stroke-opacity:1;stroke-miterlimit:10;" d="M 122.40625 137.4375 L 68.742188 164.757812 "/>
<path style="fill:none;stroke-width:1;stroke-linecap:butt;stroke-linejoin:miter;stroke:rgb(26.666667%,26.666667%,26.666667%);stroke-opacity:1;stroke-miterlimit:10;" d="M 195.378906 118.929688 L 288.8125 99.394531 "/>
<path style="fill:none;stroke-width:1;stroke-linecap:butt;stroke-linejoin:miter;stroke:rgb(26.666667%,26.666667%,26.666667%);stroke-opacity:1;stroke-miterlimit:10;" d="M 308.191406 454.460938 L 242.984375 460.277344 "/>
<path style="fill:none;stroke-width:1;stroke-linecap:butt;stroke-linejoin:miter;stroke:rgb(26.666667%,26.666667%,26.666667%);stroke-opacity:1;stroke-miterlimit:10;" d="M 308.191406 454.460938 L 254.574219 414.878906 "/>
<path style="fill:none;stroke-width:1;stroke-linecap:butt;stroke-linejoin:miter;stroke:rgb(26.666667%,26.666667%,26.666667%);stroke-opacity:1;stroke-miterlimit:10;" d="M 242.984375 460.277344 L 254.574219 414.878906 "/>
<path style="fill:none;stroke-width:1;stroke-linecap:butt;stroke-linejoin:miter;stroke:rgb(26.666667%,26.666667%,26.666667%);stroke-opacity:1;stroke-miterlimit:10;" d="M 525.210938 369.917969 L 497.90625 412.777344 "/>
<path style="fill:none;stroke-width:1;stroke-linecap:butt;stroke-linejoin:miter;stroke:rgb(26.666667%,26.666667%,26.666667%);stroke-opacity:1;stroke-miterlimit:10;" d="M 525.210938 369.917969 L 580 348.867188 "/>
<path style="fill:none;stroke-width:1;stroke-linecap:butt;stroke-linejoin:miter;stroke:rgb(26.666667%,26.666667%,26.666667%);stroke-opacity:1;stroke-miterlimit:10;" d="M 525.210938 369.917969 L 451.066406 364.054688 "/>
<path style="fill:none;stroke-width:1;stroke-linecap:butt;stroke-linejoin:miter;stroke:rgb(26.666667%,26.666667%,26.666667%);stroke-opacity:1;stroke-miterlimit:10;" d="M 273.742188 224.765625 L 309.347656 155.707031 "/>
<path style="fill:none;stroke-width:1;stroke-linecap:butt;stroke-linejoin:miter;stroke:rgb(26.666667%,26.666667%,26.666667%);stroke-opacity:1;stroke-miterlimit:10;" d="M 497.90625 412.777344 L 451.066406 364.054688 "/>
<path style="fill:none;stroke-width:1;stroke-linecap:butt;stroke-linejoin:miter;stroke:rgb(26.666667%,26.666667%,26.666667%);stroke-opacity:1;stroke-miterlimit:10;" d="M 68.742188 164.757812 L 33.847656 204.667969 "/>
<path style="fill-rule:nonzero;fill:rgb(100%,0%,0%);fill-opacity:1;stroke-width:1;stroke-linecap:butt;stroke-linejoin:miter;stroke:rgb(0%,0%,0%);stroke-opacity:1;stroke-miterlimit:10;" d="M 297.355469 37.082031 C 297.355469 42.605469 292.878906 47.082031 287.355469 47.082031 C 281.832031 47.082031 277.355469 42.605469 277.355469 37.082031 C 277.355469 31.558594 281.832031 27.082031 287.355469 27.082031 C 292.878906 27.082031 297.355469 31.558594 297.355469 37.082031 "/>
<path style="fill-rule:nonzero;fill:rgb(100%,0%,0%);fill-opacity:1;stroke-width:1;stroke-linecap:butt;stroke-linejoin:miter;stroke:rgb(0%,0%,0%);stroke-opacity:1;stroke-miterlimit:10;" d="M 322.914062 524.003906 C 322.914062 529.527344 318.4375 534.003906 312.914062 534.003906 C 307.390625 534.003906 302.914062 529.527344 302.914062 524.003906 C 302.914062 518.480469 307.390625 514.003906 312.914062 514.003906 C 318.4375 514.003906 322.914062 518.480469 322.914062 524.003906 "/>
<path style="fill-rule:nonzero;fill:rgb(100%,0%,0%);fill-opacity:1;stroke-width:1;stroke-linecap:butt;stroke-linejoin:miter;stroke:rgb(0%,0%,0%);stroke-opacity:1;stroke-miterlimit:10;" d="M 112.746094 417.640625 C 112.746094 423.164062 108.269531 427.640625 102.746094 427.640625 C 97.222656 427.640625 92.746094 423.164062 92.746094 417.640625 C 92.746094 412.117188 97.222656 407.640625 102.746094 407.640625 C 108.269531 407.640625 112.746094 412.117188 112.746094 417.640625 "/>
<path style="fill-rule:nonzero;fill:rgb(100%,0%,0%);fill-opacity:1;stroke-width:1;stroke-linecap:butt;stroke-linejoin:miter;stroke:rgb(0%,0%,0%);stroke-opacity:1;stroke-miterlimit:10;" d="M 549.144531 131.5625 C 549.144531 137.085938 544.664062 141.5625 539.144531 141.5625 C 533.621094 141.5625 529.144531 137.085938 529.144531 131.5625 C 529.144531 126.042969 533.621094 121.5625 539.144531 121.5625 C 544.664062 121.5625 549.144531 126.042969 549.144531 131.5625 "/>
<path style="fill-rule:nonzero;fill:rgb(100%,0%,0%);fill-opacity:1;stroke-width:1;stroke-linecap:butt;stroke-linejoin:miter;stroke:rgb(0%,0%,0%);stroke-opacity:1;stroke-miterlimit:10;" d="M 589.625 225.414062 C 589.625 230.9375 585.148438 235.414062 579.625 235.414062 C 574.101562 235.414062 569.625 230.9375 569.625 225.414062 C 569.625 219.890625 574.101562 215.414062 579.625 215.414062 C 585.148438 215.414062 589.625 219.890625 589.625 225.414062 "/>
<path style="fill-rule:nonzero;fill:rgb(100%,0%,0%);fill-opacity:1;stroke-width:1;stroke-linecap:butt;stroke-linejoin:miter;stroke:rgb(0%,0%,0%);stroke-opacity:1;stroke-miterlimit:10;" d="M 351.953125 72.242188 C 351.953125 77.761719 347.476562 82.242188 341.953125 82.242188 C 336.429688 82.242188 331.953125 77.761719 331.953125 72.242188 C 331.953125 66.71875 336.429688 62.242188 341.953125 62.242188 C 347.476562 62.242188 351.953125 66.71875 351.953125 72.242188 "/>
<path style="fill-rule:nonzero;fill:rgb(100%,0%,0%);fill-opacity:1;stroke-width:1;stroke-linecap:butt;stroke-linejoin:miter;stroke:rgb(0%,0%,0%);stroke-opacity:1;stroke-miterlimit:10;" d="M 336.589844 282.066406 C 336.589844 287.589844 332.113281 292.066406 326.589844 292.066406 C 321.066406 292.066406 316.589844 287.589844 316.589844 282.066406 C 316.589844 276.542969 321.066406 272.066406 326.589844 272.066406 C 332.113281 272.066406 336.589844 276.542969 336.589844 282.066406 "/>
<path style="fill-rule:nonzero;fill:rgb(100%,0%,0%);fill-opacity:1;stroke-width:1;stroke-linecap:butt;stroke-linejoin:miter;stroke:rgb(0%,0%,0%);stroke-opacity:1;stroke-miterlimit:10;" d="M 169.164062 62.269531 C 169.164062 67.792969 164.6875 72.269531 159.164062 72.269531 C 153.644531 72.269531 149.164062 67.792969 149.164062 62.269531 C 149.164062 56.746094 153.644531 52.269531 159.164062 52.269531 C 164.6875 52.269531 169.164062 56.746094 169.164062 62.269531 "/>
<path style="fill-rule:nonzero;fill:rgb(100%,0%,0%);fill-opacity:1;stroke-width:1;stroke-linecap:butt;stroke-linejoin:miter;stroke:rgb(0%,0%,0%);stroke-opacity:1;stroke-miterlimit:10;" d="M 191.804688 560.078125 C 191.804688 565.601562 187.328125 570.078125 181.804688 570.078125 C 176.28125 570.078125 171.804688 565.601562 171.804688 560.078125 C 171.804688 554.558594 176.28125 550.078125 181.804688 550.078125 C 187.328125 550.078125 191.804688 554.558594 191.804688 560.078125 "/>
<path style="fill-rule:nonzero;fill:rgb(100%,0%,0%);fill-opacity:1;stroke-width:1;stroke-linecap:butt;stroke-linejoin:miter;stroke:rgb(0%,0%,0%);stroke-opacity:1;stroke-miterlimit:10;" d="M 409.238281 313.289062 C 409.238281 318.808594 404.757812 323.289062 399.238281 323.289062 C 393.714844 323.289062 389.238281 318.808594 389.238281 313.289062 C 389.238281 307.765625 393.714844 303.289062 399.238281 303.289062 C 404.757812 303.289062 409.238281 307.765625 409.238281 313.289062 "/>
<path style="fill-rule:nonzero;fill:rgb(100%,0%,0%);fill-opacity:1;stroke-width:1;stroke-linecap:butt;stroke-linejoin:miter;stroke:rgb(0%,0%,0%);stroke-opacity:1;stroke-miterlimit:10;" d="M 391.710938 20 C 391.710938 25.523438 387.234375 30 381.710938 30 C 376.1875 30 371.710938 25.523438 371.710938 20 C 371.710938 14.476562 376.1875 10 381.710938 10 C 387.234375 10 391.710938 14.476562 391.710938 20 "/>
<path style="fill-rule:nonzero;fill:rgb(100%,0%,0%);fill-opacity:1;stroke-width:1;stroke-linecap:butt;stroke-linejoin:miter;stroke:rgb(0%,0%,0%);stroke-opacity:1;stroke-miterlimit:10;" d="M 393.984375 420.707031 C 393.984375 426.230469 389.507812 430.707031 383.984375 430.707031 C 378.460938 430.707031 373.984375 426.230469 373.984375 420.707031 C 373.984375 415.183594 378.460938 410.707031 383.984375 410.707031 C 389.507812 410.707031 393.984375 415.183594 393.984375 420.707031 "/>
<path style="fill-rule:nonzero;fill:rgb(100%,0%,0%);fill-opacity:1;stroke-width:1;stroke-linecap:butt;stroke-linejoin:miter;stroke:rgb(0%,0%,0%);stroke-opacity:1;stroke-miterlimit:10;" d="M 486.046875 526.28125 C 486.046875 531.804688 481.570312 536.28125 476.046875 536.28125 C 470.527344 536.28125 466.046875 531.804688 466.046875 526.28125 C 466.046875 520.761719 470.527344 516.28125 476.046875 516.28125 C 481.570312 516.28125 486.046875 520.761719 486.046875 526.28125 "/>
<path style="fill-rule:nonzero;fill:rgb(100%,0%,0%);fill-opacity:1;stroke-width:1;stroke-linecap:butt;stroke-linejoin:miter;stroke:rgb(0%,0%,0%);stroke-opacity:1;stroke-miterlimit:10;" d="M 390.050781 148.335938 C 390.050781 153.859375 385.574219 158.335938 380.050781 158.335938 C 374.527344 158.335938 370.050781 153.859375 370.050781 148.335938 C 370.050781 142.8125 374.527344 138.335938 380.050781 138.335938 C 385.574219 138.335938 390.050781 142.8125 390.050781 148.335938 "/>
<path style="fill-rule:nonzero;fill:rgb(100%,0%,0%);fill-opacity:1;stroke-width:1;stroke-linecap:butt;stroke-linejoin:miter;stroke:rgb(0%,0%,0%);stroke-opacity:1;stroke-miterlimit:10;" d="M 463.039062 283.160156 C 463.039062 288.683594 458.5625 293.160156 453.039062 293.160156 C 447.515625 293.160156 443.039062 288.683594 443.039062 283.160156 C 443.039062 277.636719 447.515625 273.160156 453.039062 273.160156 C 458.5625 273.160156 463.039062 277.636719 463.039062 283.160156 "/>
<path style="fill-rule:nonzero;fill:rgb(100%,0%,0%);fill-opacity:1;stroke-width:1;stroke-linecap:butt;stroke-linejoin:miter;stroke:rgb(0%,0%,0%);stroke-opacity:1;stroke-miterlimit:10;" d="M 218.097656 192.550781 C 218.097656 198.074219 213.621094 202.550781 208.097656 202.550781 C 202.574219 202.550781 198.097656 198.074219 198.097656 192.550781 C 198.097656 187.027344 202.574219 182.550781 208.097656 182.550781 C 213.621094 182.550781 218.097656 187.027344 218.097656 192.550781 "/>
<path style="fill-rule:nonzero;fill:rgb(100%,0%,0%);fill-opacity:1;stroke-width:1;stroke-linecap:butt;stroke-linejoin:miter;stroke:rgb(0%,0%,0%);stroke-opacity:1;stroke-miterlimit:10;" d="M 132.40625 137.4375 C 132.40625 142.960938 127.929688 147.4375 122.40625 147.4375 C 116.882812 147.4375 112.40625 142.960938 112.40625 137.4375 C 112.40625 131.914062 116.882812 127.4375 122.40625 127.4375 C 127.929688 127.4375 132.40625 131.914062 132.40625 137.4375 "/>
<path style="fill-rule:nonzero;fill:rgb(100%,0%,0%);fill-opacity:1;stroke-width:1;stroke-linecap:butt;stroke-linejoin:miter;stroke:rgb(0%,0%,0%);stroke-opacity:1;stroke-miterlimit:10;" d="M 205.378906 118.929688 C 205.378906 124.453125 200.898438 128.929688 195.378906 128.929688 C 189.855469 128.929688 185.378906 124.453125 185.378906 118.929688 C 185.378906 113.410156 189.855469 108.929688 195.378906 108.929688 C 200.898438 108.929688 205.378906 113.410156 205.378906 118.929688 "/>
<path style="fill-rule:nonzero;fill:rgb(100%,0%,0%);fill-opacity:1;stroke-width:1;stroke-linecap:butt;stroke-linejoin:miter;stroke:rgb(0%,0%,0%);stroke-opacity:1;stroke-miterlimit:10;" d="M 136.257812 317.289062 C 136.257812 322.8125 131.777344 327.289062 126.257812 327.289062 C 120.734375 327.289062 116.257812 322.8125 116.257812 317.289062 C 116.257812 311.765625 120.734375 307.289062 126.257812 307.289062 C 131.777344 307.289062 136.257812 311.765625 136.257812 317.289062 "/>
<path style="fill-rule:nonzero;fill:rgb(100%,0%,0%);fill-opacity:1;stroke-width:1;stroke-linecap:butt;stroke-linejoin:miter;stroke:rgb(0%,0%,0%);stroke-opacity:1;stroke-miterlimit:10;" d="M 318.191406 454.460938 C 318.191406 459.984375 313.710938 464.460938 308.191406 464.460938 C 302.667969 464.460938 298.191406 459.984375 298.191406 454.460938 C 298.191406 448.9375 302.667969 444.460938 308.191406 444.460938 C 313.710938 444.460938 318.191406 448.9375 318.191406 454.460938 "/>
<path style="fill-rule:nonzero;fill:rgb(100%,0%,0%);fill-opacity:1;stroke-width:1;stroke-linecap:butt;stroke-linejoin:miter;stroke:rgb(0%,0%,0%);stroke-opacity:1;stroke-miterlimit:10;" d="M 318.367188 580 C 318.367188 585.523438 313.890625 590 308.367188 590 C 302.84375 590 298.367188 585.523438 298.367188 580 C 298.367188 574.476562 302.84375 570 308.367188 570 C 313.890625 570 318.367188 574.476562 318.367188 580 "/>
<path style="fill-rule:nonzero;fill:rgb(100%,0%,0%);fill-opacity:1;stroke-width:1;stroke-linecap:butt;stroke-linejoin:miter;stroke:rgb(0%,0%,0%);stroke-opacity:1;stroke-miterlimit:10;" d="M 252.984375 460.277344 C 252.984375 465.796875 248.507812 470.277344 242.984375 470.277344 C 237.460938 470.277344 232.984375 465.796875 232.984375 460.277344 C 232.984375 454.753906 237.460938 450.277344 242.984375 450.277344 C 248.507812 450.277344 252.984375 454.753906 252.984375 460.277344 "/>
<path style="fill-rule:nonzero;fill:rgb(100%,0%,0%);fill-opacity:1;stroke-width:1;stroke-linecap:butt;stroke-linejoin:miter;stroke:rgb(0%,0%,0%);stroke-opacity:1;stroke-miterlimit:10;" d="M 82.257812 457.660156 C 82.257812 463.179688 77.78125 467.660156 72.257812 467.660156 C 66.734375 467.660156 62.257812 463.179688 62.257812 457.660156 C 62.257812 452.136719 66.734375 447.660156 72.257812 447.660156 C 77.78125 447.660156 82.257812 452.136719 82.257812 457.660156 "/>
<path style="fill-rule:nonzero;fill:rgb(100%,0%,0%);fill-opacity:1;stroke-width:1;stroke-linecap:butt;stroke-linejoin:miter;stroke:rgb(0%,0%,0%);stroke-opacity:1;stroke-miterlimit:10;" d="M 441.800781 552.496094 C 441.800781 558.019531 437.324219 562.496094 431.800781 562.496094 C 426.277344 562.496094 421.800781 558.019531 421.800781 552.496094 C 421.800781 546.972656 426.277344 542.496094 431.800781 542.496094 C 437.324219 542.496094 441.800781 546.972656 441.800781 552.496094 "/>
<path style="fill-rule:nonzero;fill:rgb(100%,0%,0%);fill-opacity:1;stroke-width:1;stroke-linecap:butt;stroke-linejoin:miter;stroke:rgb(0%,0%,0%);stroke-opacity:1;stroke-miterlimit:10;" d="M 151.777344 529.3125 C 151.777344 534.835938 147.300781 539.3125 141.777344 539.3125 C 136.253906 539.3125 131.777344 534.835938 131.777344 529.3125 C 131.777344 523.789062 136.253906 519.3125 141.777344 519.3125 C 147.300781 519.3125 151.777344 523.789062 151.777344 529.3125 "/>
<path style="fill-rule:nonzero;fill:rgb(100%,0%,0%);fill-opacity:1;stroke-width:1;stroke-linecap:butt;stroke-linejoin:miter;stroke:rgb(0%,0%,0%);stroke-opacity:1;stroke-miterlimit:10;" d="M 535.210938 369.917969 C 535.210938 375.4375 530.734375 379.917969 525.210938 379.917969 C 519.691406 379.917969 515.210938 375.4375 515.210938 369.917969 C 515.210938 364.394531 519.691406 359.917969 525.210938 359.917969 C 530.734375 359.917969 535.210938 364.394531 535.210938 369.917969 "/>
<path style="fill-rule:nonzero;fill:rgb(100%,0%,0%);fill-opacity:1;stroke-width:1;stroke-linecap:butt;stroke-linejoin:miter;stroke:rgb(0%,0%,0%);stroke-opacity:1;stroke-miterlimit:10;" d="M 450.730469 204.40625 C 450.730469 209.929688 446.253906 214.40625 440.730469 214.40625 C 435.207031 214.40625 430.730469 209.929688 430.730469 204.40625 C 430.730469 198.882812 435.207031 194.40625 440.730469 194.40625 C 446.253906 194.40625 450.730469 198.882812 450.730469 204.40625 "/>
<path style="fill-rule:nonzero;fill:rgb(100%,0%,0%);fill-opacity:1;stroke-width:1;stroke-linecap:butt;stroke-linejoin:miter;stroke:rgb(0%,0%,0%);stroke-opacity:1;stroke-miterlimit:10;" d="M 283.742188 224.765625 C 283.742188 230.289062 279.265625 234.765625 273.742188 234.765625 C 268.21875 234.765625 263.742188 230.289062 263.742188 224.765625 C 263.742188 219.242188 268.21875 214.765625 273.742188 214.765625 C 279.265625 214.765625 283.742188 219.242188 283.742188 224.765625 "/>
<path style="fill-rule:nonzero;fill:rgb(100%,0%,0%);fill-opacity:1;stroke-width:1;stroke-linecap:butt;stroke-linejoin:miter;stroke:rgb(0%,0%,0%);stroke-opacity:1;stroke-miterlimit:10;" d="M 507.90625 412.777344 C 507.90625 418.300781 503.429688 422.777344 497.90625 422.777344 C 492.382812 422.777344 487.90625 418.300781 487.90625 412.777344 C 487.90625 407.253906 492.382812 402.777344 497.90625 402.777344 C 503.429688 402.777344 507.90625 407.253906 507.90625 412.777344 "/>
<path style="fill-rule:nonzero;fill:rgb(100%,0%,0%);fill-opacity:1;stroke-width:1;stroke-linecap:butt;stroke-linejoin:miter;stroke:rgb(0%,0%,0%);stroke-opacity:1;stroke-miterlimit:10;" d="M 264.574219 414.878906 C 264.574219 420.402344 260.097656 424.878906 254.574219 424.878906 C 249.050781 424.878906 244.574219 420.402344 244.574219 414.878906 C 244.574219 409.355469 249.050781 404.878906 254.574219 404.878906 C 260.097656 404.878906 264.574219 409.355469 264.574219 414.878906 "/>
<path style="fill-rule:nonzero;fill:rgb(100%,0%,0%);fill-opacity:1;stroke-width:1;stroke-linecap:butt;stroke-linejoin:miter;stroke:rgb(0%,0%,0%);stroke-opacity:1;stroke-miterlimit:10;" d="M 423.238281 55.917969 C 423.238281 61.441406 418.761719 65.917969 413.238281 65.917969 C 407.714844 65.917969 403.238281 61.441406 403.238281 55.917969 C 403.238281 50.394531 407.714844 45.917969 413.238281 45.917969 C 418.761719 45.917969 423.238281 50.394531 423.238281 55.917969 "/>
<path style="fill-rule:nonzero;fill:rgb(100%,0%,0%);fill-opacity:1;stroke-width:1;stroke-linecap:butt;stroke-linejoin:miter;stroke:rgb(0%,0%,0%);stroke-opacity:1;stroke-miterlimit:10;" d="M 78.742188 164.757812 C 78.742188 170.28125 74.265625 174.757812 68.742188 174.757812 C 63.21875 174.757812 58.742188 170.28125 58.742188 164.757812 C 58.742188 159.234375 63.21875 154.757812 68.742188 154.757812 C 74.265625 154.757812 78.742188 159.234375 78.742188 164.757812 "/>
<path style="fill-rule:nonzero;fill:rgb(100%,0%,0%);fill-opacity:1;stroke-width:1;stroke-linecap:butt;stroke-linejoin:miter;stroke:rgb(0%,0%,0%);stroke-opacity:1;stroke-miterlimit:10;" d="M 36.015625 291.105469 C 36.015625 296.625 31.539062 301.105469 26.015625 301.105469 C 20.496094 301.105469 16.015625 296.625 16.015625 291.105469 C 16.015625 285.582031 20.496094 281.105469 26.015625 281.105469 C 31.539062 281.105469 36.015625 285.582031 36.015625 291.105469 "/>
<path style="fill-rule:nonzero;fill:rgb(100%,0%,0%);fill-opacity:1;stroke-width:1;stroke-linecap:butt;stroke-linejoin:miter;stroke:rgb(0%,0%,0%);stroke-opacity:1;stroke-miterlimit:10;" d="M 319.347656 155.707031 C 319.347656 161.230469 314.871094 165.707031 309.347656 165.707031 C 303.824219 165.707031 299.347656 161.230469 299.347656 155.707031 C 299.347656 150.183594 303.824219 145.707031 309.347656 145.707031 C 314.871094 145.707031 319.347656 150.183594 319.347656 155.707031 "/>
<path style="fill-rule:nonzero;fill:rgb(100%,0%,0%);fill-opacity:1;stroke-width:1;stroke-linecap:butt;stroke-linejoin:miter;stroke:rgb(0%,0%,0%);stroke-opacity:1;stroke-miterlimit:10;" d="M 590 348.867188 C 590 354.390625 585.523438 358.867188 580 358.867188 C 574.476562 358.867188 570 354.390625 570 348.867188 C 570 343.34375 574.476562 338.867188 580 338.867188 C 585.523438 338.867188 590 343.34375 590 348.867188 "/>
<path style="fill-rule:nonzero;fill:rgb(100%,0%,0%);fill-opacity:1;stroke-width:1;stroke-linecap:butt;stroke-linejoin:miter;stroke:rgb(0%,0%,0%);stroke-opacity:1;stroke-miterlimit:10;" d="M 298.8125 99.394531 C 298.8125 104.914062 294.335938 109.394531 288.8125 109.394531 C 283.289062 109.394531 278.8125 104.914062 278.8125 99.394531 C 278.8125 93.871094 283.289062 89.394531 288.8125 89.394531 C 294.335938 89.394531 298.8125 93.871094 298.8125 99.394531 "/>
<path style="fill-rule:nonzero;fill:rgb(100%,0%,0%);fill-opacity:1;stroke-width:1;stroke-linecap:butt;stroke-linejoin:miter;stroke:rgb(0%,0%,0%);stroke-opacity:1;stroke-miterlimit:10;" d="M 43.847656 204.667969 C 43.847656 210.191406 39.371094 214.667969 33.847656 214.667969 C 28.324219 214.667969 23.847656 210.191406 23.847656 204.667969 C 23.847656 199.144531 28.324219 194.667969 33.847656 194.667969 C 39.371094 194.667969 43.847656 199.144531 43.847656 204.667969 "/>
<path style="fill-rule:nonzero;fill:rgb(100%,0%,0%);fill-opacity:1;stroke-width:1;stroke-linecap:butt;stroke-linejoin:miter;stroke:rgb(0%,0%,0%);stroke-opacity:1;stroke-miterlimit:10;" d="M 461.066406 364.054688 C 461.066406 369.578125 456.589844 374.054688 451.066406 374.054688 C 445.542969 374.054688 441.066406 369.578125 441.066406 364.054688 C 441.066406 358.53125 445.542969 354.054688 451.066406 354.054688 C 456.589844 354.054688 461.066406 358.53125 461.066406 364.054688 "/>
<path style="fill-rule:nonzero;fill:rgb(100%,0%,0%);fill-opacity:1;stroke-width:1;stroke-linecap:butt;stroke-linejoin:miter;stroke:rgb(0%,0%,0%);stroke-opacity:1;stroke-miterlimit:10;" d="M 30 370.410156 C 30 375.933594 25.523438 380.410156 20 380.410156 C 14.476562 380.410156 10 375.933594 10 370.410156 C 10 364.886719 14.476562 360.410156 20 360.410156 C 25.523438 360.410156 30 364.886719 30 370.410156 "/>
</g>
</svg>
